#!OML:ASF E:\emotionWalksFemale\Project 1\Capture day 1\Session 1\Female1.ASF
:FULLY-SPECIFIED
:DEGREES
329
root 9.05715 13.5161 8.58098 90.386 -84.303 -77.0461
lowerback 21.8171 -0.905459 -2.14629
upperback -2.8131 -1.69637 0.720176
thorax -15.5091 -0.526717 2.64597
lowerneck -11.5235 0.0284446 -1.98625
upperneck -12.1707 -0.120201 3.44665
head -1.92734 -0.269912 1.43575
rclavicle -7.55382e-015 4.29375e-014
rhumerus -32.652 14.7062 -80.5726
rradius 60.1598
rwrist 19.3383
rhand -8.46331 -49.8653
rfingers 7.12502
rthumb 17.463 -79.1009
lclavicle -7.55382e-015 4.29375e-014
lhumerus -31.2115 1.46305 78.5216
lradius 34.2102
lwrist -16.2882
lhand -19.4304 -55.4571
lfingers 7.12502
lthumb 6.88969 -25.5892
rfemur -45.793 8.22686 31.7849
rtibia 70.5774
rfoot -32.6847 -19.9038
rtoes 1.06651
lfemur -51.6089 -0.222527 -19.5007
ltibia 76.0185
lfoot -37.7984 9.83711
ltoes -26.9686
330
root 9.03606 13.5879 8.55601 86.4147 -84.544 -73.3908
lowerback 21.6312 -0.987565 -1.75744
upperback -2.8664 -1.70808 0.640707
thorax -15.4749 -0.571906 2.33097
lowerneck -11.9071 -0.251785 -2.43033
upperneck -11.3265 -0.421758 3.49521
head -1.57973 -0.380562 1.51127
rclavicle 1.98785e-016 -2.38542e-015
rhumerus -32.3444 15.4322 -80.9261
rradius 61.8528
rwrist 18.7923
rhand -7.36217 -48.6996
rfingers 7.12502
rthumb 18.5225 -77.8378
lclavicle 1.98785e-016 -2.38542e-015
lhumerus -32.4206 2.7301 76.6155
lradius 34.6764
lwrist -15.6739
lhand -18.797 -52.7268
lfingers 7.12502
lthumb 7.50107 -22.8798
rfemur -44.6374 7.84132 31.7538
rtibia 69.2601
rfoot -30.9607 -21.9185
rtoes -6.87592
lfemur -50.593 -0.445645 -19.6616
ltibia 74.8447
lfoot -37.3396 10.0807
ltoes -28.9936
331
root 9.01311 13.6579 8.5274 84.5663 -84.7881 -71.7208
lowerback 21.1829 -0.947654 -1.50712
upperback -2.98202 -1.59482 0.540182
thorax -15.3612 -0.551288 2.02247
lowerneck -12.16 -0.387001 -2.58601
upperneck -10.4184 -0.557355 3.44285
head -1.24024 -0.418231 1.50818
rclavicle 9.93923e-015 -6.36111e-015
rhumerus -32.2969 16.0232 -81.256
rradius 63.588
rwrist 18.2819
rhand -5.76444 -46.0269
rfingers 7.12502
rthumb 20.0588 -75.0115
lclavicle 9.93923e-015 -6.36111e-015
lhumerus -33.8061 2.9841 74.9205
lradius 35.5611
lwrist -14.6274
lhand -18.0146 -49.9806
lfingers 7.12502
lthumb 8.25628 -20.1619
rfemur -43.5382 7.44777 31.8862
rtibia 67.8118
rfoot -28.0281 -24.8948
rtoes -18.0687
lfemur -49.7256 -0.40776 -19.7913
ltibia 73.675
lfoot -37.0318 9.88384
ltoes -29.7819
332
root 8.98975 13.7426 8.50076 80.3542 -84.9885 -67.8285
lowerback 20.8765 -1.00052 -1.31377
upperback -3.10908 -1.61855 0.481697
thorax -15.3363 -0.582489 1.8465
lowerneck -12.1327 -0.481706 -2.78075
upperneck -9.68138 -0.635652 3.42392
head -1.00466 -0.431115 1.52809
rclavicle -2.64384e-014 -3.18055e-014
rhumerus -32.4428 16.7535 -81.6225
rradius 65.285
rwrist 17.7099
rhand -7.09361 -48.0601
rfingers 7.12502
rthumb 18.7808 -77.1734
lclavicle -2.64384e-014 -3.18055e-014
lhumerus -35.3426 2.99849 73.2981
lradius 36.4579
lwrist -14.0204
lhand -16.9026 -47.5393
lfingers 7.12502
lthumb 9.32932 -17.7657
rfemur -42.2984 6.81889 31.8719
rtibia 66.3311
rfoot -26.3508 -26.0465
rtoes -23.3388
lfemur -48.6092 -0.563237 -19.8965
ltibia 72.3761
lfoot -37.1107 8.62144
ltoes -26.0156
333
root 8.96773 13.8294 8.47861 73.7026 -85.0361 -61.4631
lowerback 20.583 -1.17975 -0.975819
upperback -3.2784 -1.77157 0.447354
thorax -15.369 -0.682326 1.65998
lowerneck -12.0283 -0.567533 -2.90405
upperneck -8.99514 -0.719618 3.22932
head -0.799651 -0.451923 1.48005
rclavicle 5.56597e-015 -3.97569e-015
rhumerus -32.7539 17.8942 -82.0306
rradius 66.9567
rwrist 16.7971
rhand -7.76149 -49.1906
rfingers 7.12502
rthumb 18.1383 -78.3649
lclavicle 5.56597e-015 -3.97569e-015
lhumerus -36.8626 2.93561 71.7324
lradius 37.2193
lwrist -13.9886
lhand -15.0045 -45.3101
lfingers 7.12502
lthumb 11.1604 -15.6269
rfemur -41.1458 6.13409 31.7421
rtibia 64.8815
rfoot -26.169 -25.8588
rtoes -23.8477
lfemur -47.5217 -0.984117 -19.941
ltibia 70.9611
lfoot -36.9729 7.37037
ltoes -21.2626
